<svg xmlns="http://www.w3.org/2000/svg" width="419.298" height="222.688" viewBox="0 0 419.298 222.688">
  <g id="_10_best_websites_alt_logo" data-name="10 best websites alt logo" transform="translate(-0.469 42.237) rotate(-9)">
    <g id="Layer_1" data-name="Layer 1">
      <path id="Path_69" data-name="Path 69" d="M0,39.15V83c15.27-1,28.81-4.43,37.43-12.07V182.7H95.29V3H48C36,29.55,20.68,36.44,0,39.15Z" fill="#0f75bc"/>
      <path id="Path_70" data-name="Path 70" d="M248.23,81.54c0-4.89-3.28-6.41-9-6.41H233V88.68h6.25C245.19,88.68,248.23,86.35,248.23,81.54Z" fill="#0f75bc"/>
      <path id="Path_71" data-name="Path 71" d="M188.35,156.12h61.87C263.07,139.53,270,117.28,270,92.83,270,41.61,239.51,0,188.3,0s-81.75,41.61-81.75,92.83,30.53,92.82,81.75,92.82a79.92,79.92,0,0,0,36.25-8.24h-36.2ZM220.17,64.3h20.29c12.26,0,20.36,5.86,20.36,15.72A13.42,13.42,0,0,1,252,92.53a14,14,0,0,1,11.87,13.71c0,10.5-8.34,16.6-21.49,16.6H220.17Zm-56,28.53c0-29.8,8.37-47,24.13-47s24.13,17.23,24.13,47-8.38,47-24.13,47S164.17,122.62,164.17,92.83Z" fill="#0f75bc"/>
      <path id="Path_72" data-name="Path 72" d="M250.64,105.52c0-4.09-3-6-8.26-6H233V112h9.38C248.39,112,250.64,109.61,250.64,105.52Z" fill="#0f75bc"/>
      <path id="Path_73" data-name="Path 73" d="M308.36,112.01H285.91V99.66h19.73V88.84H285.91V75.13h21.25V64.3H273.08v58.53h35.28Z" fill="#0f75bc"/>
      <path id="Path_74" data-name="Path 74" d="M335.94,112.57c-4.81,0-9.78-2.32-13.23-5l-6.66,9c5.62,4.33,11.55,7.3,19.65,7.3,12.67,0,20.53-6.5,20.53-17.56,0-9.62-6.1-13.63-11.79-16.12-6.82-3-14.27-4.57-14.27-9.86,0-2.33,2.08-5.69,8-5.69A19.81,19.81,0,0,1,349.32,78l5.77-9.54c-4.73-3.52-11.38-5-16.92-5-10.34,0-20.84,4.89-20.84,16.92,0,9.3,4.65,13,10.5,16.2,4.89,2.72,15.56,4.73,15.56,10.58C343.4,110.57,341.79,112.57,335.94,112.57Z" fill="#0f75bc"/>
      <path id="Path_75" data-name="Path 75" d="M361.67,64.3V75.13H373.3v47.7h12.83V75.13h11.3V64.3Z" fill="#0f75bc"/>
      <path id="Path_76" data-name="Path 76" d="M289.62,144s-.08-.47-.16-.76l-3.87-12.78h-1.75l-4,12.67c-.11.34-.21.85-.21.85s-.08-.48-.16-.82l-3.37-12.7h-2.6l5.09,19.35h1.75l4-12.91.24-1a3.69,3.69,0,0,0,.24,1l3.92,12.91h1.81l5.4-19.35h-2.57l-3.6,12.75C289.7,143.56,289.62,144,289.62,144Z" fill="#0f75bc"/>
      <path id="Path_77" data-name="Path 77" d="M309.7,132.98v-2.49H298.89v19.35h11.32v-2.49h-8.67v-5.7h7.98v-2.49h-7.98v-6.18Z" fill="#0f75bc"/>
      <path id="Path_78" data-name="Path 78" d="M325.31,144.59a4.93,4.93,0,0,0-3.26-4.61,5,5,0,0,0,2.23-4.45c0-3-2.33-5-5.62-5h-5.12v19.35h5.81C323.62,149.84,325.31,147,325.31,144.59ZM316.2,133h2c2.17,0,3.31,1,3.31,2.76s-.66,3.36-3.55,3.36H316.2Zm0,14.37V141.6h3.12c2,0,3.24,1.11,3.24,2.78s-1.12,3-3.5,3Z" fill="#0f75bc"/>
      <path id="Path_79" data-name="Path 79" d="M333.13,147.59a6.43,6.43,0,0,1-4-1.44l-1.51,2a8.59,8.59,0,0,0,5.67,2c3.23,0,5.94-2,5.94-5.44,0-3.23-2.34-4.63-4.53-5.72-2.39-1.19-4.24-1.91-4.24-4,0-1.46,1.27-2.23,2.78-2.23A5.75,5.75,0,0,1,337,134l1.43-2.17a9,9,0,0,0-5.22-1.65c-3.47,0-5.59,2.12-5.59,5,0,3.68,2.81,4.9,5.57,6.3,1.72.88,3.23,1.78,3.23,3.42C336.44,146.71,335.09,147.59,333.13,147.59Z" fill="#0f75bc"/>
      <rect id="Rectangle_41" data-name="Rectangle 41" width="2.65" height="19.35" transform="translate(342.16 130.49)" fill="#0f75bc"/>
      <path id="Path_80" data-name="Path 80" d="M354.41,149.84V132.98h4.1v-2.49h-10.7v2.49h3.95v16.86Z" fill="#0f75bc"/>
      <path id="Path_81" data-name="Path 81" d="M372.82,147.35h-8.66v-5.7h7.97v-2.49h-7.97v-6.18h8.16v-2.49H361.51v19.35h11.31Z" fill="#0f75bc"/>
      <path id="Path_82" data-name="Path 82" d="M380.91,147.59a6.43,6.43,0,0,1-4-1.44l-1.51,2a8.59,8.59,0,0,0,5.67,2c3.23,0,5.93-2,5.93-5.44,0-3.23-2.33-4.63-4.53-5.72-2.38-1.19-4.24-1.91-4.24-4,0-1.46,1.27-2.23,2.79-2.23A5.75,5.75,0,0,1,384.8,134l1.43-2.17a9,9,0,0,0-5.22-1.65c-3.47,0-5.59,2.12-5.59,5,0,3.68,2.81,4.9,5.57,6.3,1.72.88,3.23,1.78,3.23,3.42C384.22,146.71,382.87,147.59,380.91,147.59Z" fill="#0f75bc"/>
      <path id="Path_83" data-name="Path 83" d="M204,173.79h-1l-3.24-10.73-3.28,10.73h-.93l-4.1-13.55h1.36L196.1,171l3.26-10.74h.92L203.52,171l3.28-10.73h1.34Z" fill="#0f75bc"/>
      <path id="Path_84" data-name="Path 84" d="M210.77,173.79V160.24h7.49v1.19h-6.15v4.86h5.76v1.19h-5.76v5.12h6.52v1.19Z" fill="#0f75bc"/>
      <path id="Path_85" data-name="Path 85" d="M225.75,173.79h-4.14V160.24h3.5c2.5,0,4.29,1.24,4.29,3.4a3.22,3.22,0,0,1-2.08,3.1,3.51,3.51,0,0,1,3.09,3.34C230.41,172.34,228.56,173.79,225.75,173.79Zm-.8-12.36h-2v4.86h2c1.88,0,3-1,3-2.58s-1.06-2.28-2.95-2.28Zm.68,6H223v5.12h2.7c1.92,0,3.34-.82,3.34-2.6s-1.7-2.47-3.41-2.47Z" fill="#0f75bc"/>
      <path id="Path_86" data-name="Path 86" d="M240.33,173.79h-3.14V160.24h3.22c4.41,0,7.46,2.64,7.46,6.68S244.78,173.79,240.33,173.79Zm.2-12.4h-2v11.25h1.82c3.83,0,6.1-2.53,6.1-5.7S244,161.39,240.53,161.39Z" fill="#0f75bc"/>
      <path id="Path_87" data-name="Path 87" d="M250.73,173.79V160.24h7.5v1.19h-6.16v4.86h5.77v1.19h-5.77v5.12h6.52v1.19Z" fill="#0f75bc"/>
      <path id="Path_88" data-name="Path 88" d="M264.86,174a6.07,6.07,0,0,1-3.92-1.39l.81-1a4.86,4.86,0,0,0,3.07,1.12c1.53,0,2.77-.86,2.77-2.31s-1.39-2.3-2.85-3c-1.82-.89-3.69-1.76-3.69-4.06,0-2,1.61-3.36,3.79-3.36a5.3,5.3,0,0,1,3.71,1.32l-.84,1a3.79,3.79,0,0,0-2.87-1.06,2.14,2.14,0,0,0-2.37,2.06c0,1.62,1.3,2.15,3.09,3.05s3.43,1.72,3.43,4S267.05,174,264.86,174Z" fill="#0f75bc"/>
      <path id="Path_89" data-name="Path 89" d="M271.74,173.79V160.24h1.34v13.55Z" fill="#0f75bc"/>
      <path id="Path_90" data-name="Path 90" d="M283.29,174a7,7,0,0,1,0-14,7.19,7.19,0,0,1,5.2,2l-.85.95a5.86,5.86,0,0,0-4.39-1.69,5.76,5.76,0,1,0,.06,11.51,5,5,0,0,0,5-3.51h-4.7v-1.21h6.25a6.4,6.4,0,0,1-6.57,5.95Z" fill="#0f75bc"/>
      <path id="Path_91" data-name="Path 91" d="M302.35,173.79l-8.49-11.36v11.36h-1.34V160.24h1.34l8.39,11.27V160.24h1.36v13.55Z" fill="#0f75bc"/>
      <path id="Path_92" data-name="Path 92" d="M317.34,174a7,7,0,0,1,0-14,6.45,6.45,0,0,1,5.14,2.13l-1,.84a5.731,5.731,0,1,0-4.15,9.81,5.83,5.83,0,0,0,4.44-2l1,.78a7,7,0,0,1-5.43,2.44Z" fill="#0f75bc"/>
      <path id="Path_93" data-name="Path 93" d="M334.36,173.79,332.53,169H327.6l-1.82,4.83h-1.44l5.34-13.68h.81l5.36,13.68Zm-4.29-11.4-2,5.39h4Z" fill="#0f75bc"/>
      <path id="Path_94" data-name="Path 94" d="M341,161.43v12.36h-1.36V161.43h-3.28v-1.19h8v1.19Z" fill="#0f75bc"/>
      <path id="Path_95" data-name="Path 95" d="M354.46,173.79,352.63,169H347.7l-1.82,4.83h-1.44l5.34-13.68h.81L356,173.79Zm-4.29-11.4-2,5.39h4Z" fill="#0f75bc"/>
      <path id="Path_96" data-name="Path 96" d="M358.85,173.79V160.24h1.34V172.6h6v1.19Z" fill="#0f75bc"/>
      <path id="Path_97" data-name="Path 97" d="M374.21,174a7,7,0,0,1,0-14,6.89,6.89,0,0,1,7.14,7,7,7,0,0,1-7.14,7Zm0-12.75A5.56,5.56,0,0,0,368.5,167a5.7,5.7,0,1,0,11.39,0,5.57,5.57,0,0,0-5.72-5.74Z" fill="#0f75bc"/>
      <path id="Path_98" data-name="Path 98" d="M390.87,174a7,7,0,0,1,0-14,7.19,7.19,0,0,1,5.2,2l-.85.95a5.86,5.86,0,0,0-4.39-1.69,5.76,5.76,0,1,0,.06,11.51,5,5,0,0,0,5-3.51h-4.7v-1.21h6.25a6.39,6.39,0,0,1-6.57,5.95Z" fill="#0f75bc"/>
    </g>
  </g>
</svg>
