<svg xmlns="http://www.w3.org/2000/svg" width="1821.755" height="2619.669" viewBox="0 0 1821.755 2619.669">
  <g id="bg" transform="translate(234.816 2.471)">
    <g id="Group_13" data-name="Group 13" transform="matrix(0.809, 0.588, -0.588, 0.809, 809.718, 0)">
      <line id="Line_3" data-name="Line 3" x2="619.657" y2="441.918" transform="translate(27.953 46.136)" fill="none" stroke="rgba(1,102,153,0.15)" stroke-width="5" stroke-dasharray="42"/>
      <path id="Path_61" data-name="Path 61" d="M0,371.576,242.352,131.6l25.9-25.643L375.255,0" transform="translate(0 0)" fill="none" stroke="rgba(1,102,153,0.15)" stroke-width="5" stroke-dasharray="42"/>
    </g>
    <g id="Group_16" data-name="Group 16" transform="translate(204.801 585.854)">
      <g id="Ellipse_2" data-name="Ellipse 2" transform="translate(869.796 603.146)" fill="#fff" stroke="rgba(1,102,153,0.4)" stroke-width="6">
        <circle cx="16.5" cy="16.5" r="16.5" stroke="none"/>
        <circle cx="16.5" cy="16.5" r="13.5" fill="none"/>
      </g>
      <g id="Ellipse_3" data-name="Ellipse 3" transform="translate(0 1045.705)" fill="#fff" stroke="rgba(1,102,153,0.4)" stroke-width="6">
        <ellipse cx="45.274" cy="45.274" rx="45.274" ry="45.274" stroke="none"/>
        <ellipse cx="45.274" cy="45.274" rx="42.274" ry="42.274" fill="none"/>
      </g>
      <g id="Group_8" data-name="Group 8" transform="translate(931.512 658.998)">
        <line id="Line_3-2" data-name="Line 3" x2="28.655" y2="26.826" transform="translate(0 1.524)" fill="none" stroke="rgba(1,102,153,0.4)" stroke-width="5" stroke-dasharray="42"/>
        <path id="Path_61-2" data-name="Path 61" d="M0,28.374,18.507,10.049l1.978-1.958L28.655,0" fill="none" stroke="rgba(1,102,153,0.4)" stroke-width="5" stroke-dasharray="42"/>
      </g>
      <g id="Group_11" data-name="Group 11" transform="translate(76.097 295.387) rotate(-91)">
        <line id="Line_3-3" data-name="Line 3" x2="32.325" y2="30.262" transform="translate(0 1.719)" fill="none" stroke="rgba(1,102,153,0.4)" stroke-width="5" stroke-dasharray="42"/>
        <path id="Path_61-3" data-name="Path 61" d="M0,32.008,20.877,11.336l2.231-2.209L32.325,0" transform="translate(0 0)" fill="none" stroke="rgba(1,102,153,0.4)" stroke-width="5" stroke-dasharray="42"/>
      </g>
      <g id="Group_12" data-name="Group 12" transform="translate(26.682 378.391) rotate(-91)">
        <line id="Line_3-4" data-name="Line 3" x2="87.772" y2="82.169" transform="translate(0 4.669)" fill="none" stroke="rgba(1,102,153,0.4)" stroke-width="5" stroke-dasharray="42"/>
        <path id="Path_61-4" data-name="Path 61" d="M0,86.911l56.686-56.13,6.057-6L87.772,0" transform="translate(0 0)" fill="none" stroke="rgba(1,102,153,0.4)" stroke-width="5" stroke-dasharray="42"/>
      </g>
      <g id="Group_9" data-name="Group 9" transform="translate(192.545 1198.957)">
        <line id="Line_3-5" data-name="Line 3" x2="78.627" y2="73.609" transform="translate(0 4.182)" fill="none" stroke="rgba(1,102,153,0.4)" stroke-width="5" stroke-dasharray="42"/>
        <path id="Path_61-5" data-name="Path 61" d="M0,77.856,50.78,27.574,56.206,22.2,78.627,0" fill="none" stroke="rgba(1,102,153,0.4)" stroke-width="5" stroke-dasharray="42"/>
      </g>
      <g id="Group_15" data-name="Group 15" transform="matrix(0.966, -0.259, 0.259, 0.966, 861.473, 1101.362)">
        <line id="Line_3-6" data-name="Line 3" x2="359.561" y2="435.99" transform="translate(0 0)" fill="none" stroke="rgba(1,102,153,0.15)" stroke-width="5" stroke-dasharray="42"/>
        <path id="Path_61-6" data-name="Path 61" d="M0,315.96,206.078,111.9,228.1,90.1,319.088,0" transform="translate(90.925 157.204)" fill="none" stroke="rgba(1,102,153,0.15)" stroke-width="5" stroke-dasharray="42"/>
      </g>
    </g>
    <g id="Group_14" data-name="Group 14" transform="translate(549.768 1428.662) rotate(74)">
      <line id="Line_3-7" data-name="Line 3" x2="947.902" y2="616.093" transform="translate(-154.412 153.347)" fill="none" stroke="rgba(1,102,153,0.15)" stroke-width="5" stroke-dasharray="42"/>
      <path id="Path_61-7" data-name="Path 61" d="M0,769.947,535.17,272.69l57.185-53.134L828.651,0" transform="translate(184.777 0)" fill="none" stroke="rgba(1,102,153,0.15)" stroke-width="5" stroke-dasharray="42"/>
    </g>
  </g>
</svg>
