<svg xmlns="http://www.w3.org/2000/svg" xmlns:xlink="http://www.w3.org/1999/xlink" width="179" height="175.022" viewBox="0 0 179 175.022">
  <defs>
    <clipPath id="clip-path">
      <rect id="Rectangle_24" data-name="Rectangle 24" width="179" height="175.022" rx="5" transform="translate(1041 833.489)" fill="#fff"/>
    </clipPath>
    <linearGradient id="linear-gradient" x1="0.011" y1="0.988" x2="0.989" y2="0.012" gradientUnits="objectBoundingBox">
      <stop offset="0" stop-color="#0e75bc"/>
      <stop offset="1" stop-color="#00b5f1"/>
    </linearGradient>
  </defs>
  <g id="css-graphic" transform="translate(-1041 -833.489)" clip-path="url(#clip-path)">
    <g id="css-graphic-2" data-name="css-graphic" transform="translate(1032.433 821.761)">
      <path id="Path_29" data-name="Path 29" d="M178.631,186.751H17.5a6.853,6.853,0,0,1-6.857-6.857V18.585A6.853,6.853,0,0,1,17.5,11.728H178.631a6.854,6.854,0,0,1,6.857,6.857V179.714A6.9,6.9,0,0,1,178.631,186.751Z" fill="url(#linear-gradient)"/>
      <path id="Path_30" data-name="Path 30" d="M170.15,20.209H25.8a6.853,6.853,0,0,0-6.857,6.857V171.414A6.854,6.854,0,0,0,25.8,178.27H170.15a6.854,6.854,0,0,0,6.857-6.857V27.065A6.634,6.634,0,0,0,170.15,20.209ZM72.9,69.828H69.648c-6.676,0-8.12,1.083-8.12,5.593,0,4.15.361,8.3.361,12.991,0,6.135-2.346,8.48-8.12,9.383v.361c5.774.9,8.12,3.248,8.12,9.383,0,4.872-.361,8.661-.361,12.991,0,4.511,1.443,5.593,8.12,5.593H72.9v6.315H66.761c-10.285,0-14.976-2.707-14.976-11.367,0-5.593.722-8.661.722-13.713,0-2.887-2.346-5.774-11.007-5.954V94.548c8.661-.18,11.007-3.067,11.007-5.954,0-5.052-.722-8.12-.722-13.713,0-8.661,4.691-11.367,14.976-11.367H72.9Zm85.526,33.561c-13.533.18-17.322,4.872-17.322,9.2,0,7.939,1.263,12.45,1.263,21.291,0,13.533-7.217,17.863-23.276,17.863h-9.563V142h5.052c10.285,0,12.63-1.8,12.63-8.841,0-6.676-.541-12.811-.541-20.389,0-9.563,3.609-13.172,12.45-14.615v-.541c-9.022-1.443-12.45-5.052-12.45-14.615,0-7.4.541-13.713.541-20.389,0-7.037-2.346-8.841-12.63-8.841h-5.052V44.026h9.563c16.059,0,23.276,4.33,23.276,17.863,0,8.661-1.263,13.533-1.263,21.291,0,4.511,3.609,9.022,17.322,9.2Z" fill="#fff"/>
    </g>
  </g>
</svg>
