<svg xmlns="http://www.w3.org/2000/svg" width="29.415" height="14.465" viewBox="0 0 29.415 14.465">
  <g id="link" transform="translate(-9.4 -25)">
    <g id="Group_14" data-name="Group 14" transform="translate(9.4 25)">
      <path id="Path_100" data-name="Path 100" d="M20.734,36.5h-4.1a4.264,4.264,0,0,1,0-8.528h4.1V25h-4.1a7.232,7.232,0,0,0,0,14.465h4.1Z" transform="translate(-9.4 -25)"/>
      <path id="Path_101" data-name="Path 101" d="M47.094,25H43.1v2.915h3.994a4.264,4.264,0,1,1,0,8.528H43.1v2.915h3.994a7.233,7.233,0,0,0,7.232-7.232A7.141,7.141,0,0,0,47.094,25Z" transform="translate(-24.911 -25)"/>
    </g>
    <g id="Group_15" data-name="Group 15" transform="translate(16.848 30.721)">
      <path id="Path_102" data-name="Path 102" d="M36.639,38.3H24.549a1.349,1.349,0,1,1,0-2.7h12.09a1.336,1.336,0,0,1,1.349,1.349A1.3,1.3,0,0,1,36.639,38.3Z" transform="translate(-23.2 -35.6)"/>
    </g>
  </g>
</svg>
