<svg xmlns="http://www.w3.org/2000/svg" xmlns:xlink="http://www.w3.org/1999/xlink" width="179" height="175.022" viewBox="0 0 179 175.022">
  <defs>
    <clipPath id="clip-path">
      <rect id="Rectangle_33" data-name="Rectangle 33" width="179" height="175.022" rx="5" transform="translate(368 811)" fill="#fff"/>
    </clipPath>
    <linearGradient id="linear-gradient" x1="0.011" y1="0.988" x2="0.989" y2="0.012" gradientUnits="objectBoundingBox">
      <stop offset="0" stop-color="#0e75bc"/>
      <stop offset="1" stop-color="#00b5f1"/>
    </linearGradient>
  </defs>
  <g id="usability-graphic" transform="translate(-368 -811)" clip-path="url(#clip-path)">
    <g id="web-design-graphic-01" transform="translate(370.075 811)">
      <g id="Group_4" data-name="Group 4">
        <g id="usability-graphic-2" data-name="usability-graphic" transform="translate(-10.638 -10.826)">
          <path id="Path_52" data-name="Path 52" d="M178.631,185.848H17.5a6.853,6.853,0,0,1-6.857-6.857V17.683A6.634,6.634,0,0,1,17.5,10.826H178.631a6.853,6.853,0,0,1,6.857,6.857V178.811A6.9,6.9,0,0,1,178.631,185.848Z" fill="url(#linear-gradient)"/>
          <path id="Path_53" data-name="Path 53" d="M97.8,18.946A41.121,41.121,0,0,0,56.657,60.085c0,22.735,18.4,46.733,41.139,46.733s41.139-24,41.139-46.733A41.121,41.121,0,0,0,97.8,18.946Z" fill="#fff"/>
          <path id="Path_54" data-name="Path 54" d="M142,57.559c-3.789-1.263-8.48,2.165-10.285,7.578s-.541,12.27,3.248,13.533,8.841-3.428,10.646-8.841S145.792,58.822,142,57.559Z" fill="#e4e5e6"/>
          <path id="Path_55" data-name="Path 55" d="M49.259,70.009c1.8,5.413,6.857,10.1,10.646,8.841s5.052-8.12,3.248-13.533-6.315-8.841-10.285-7.578C49.259,59.183,47.635,64.6,49.259,70.009Z" fill="#e4e5e6"/>
          <path id="Path_56" data-name="Path 56" d="M127.387,90.218h-.361a3.354,3.354,0,0,0-2.707,1.624c-5.954,9.744-5.233,16.961-17.5,19.487l.18.541c.361.722,0,1.624-.9,2.346l-8.661,5.954-9.022-5.954c-1.083-.722-1.443-1.624-1.083-2.526l.361-.722c-11.728-2.707-10.465-9.744-16.239-19.126a3.975,3.975,0,0,0-2.887-1.624h-1.8c-8.48,0-27.787,6.857-27.787,15.157V157.7a15.131,15.131,0,0,0,15.157,15.157H56.3V116.02a1.8,1.8,0,0,1,3.609,0v57.018h75.783V116.02a1.8,1.8,0,1,1,3.609,0v57.018h.722a15.131,15.131,0,0,0,15.157-15.157V105.555C155.174,97.074,135.687,90.218,127.387,90.218Z" fill="#fff"/>
          <path id="Path_57" data-name="Path 57" d="M97.8,18.946c-22.735,0-42.583,18.4-41.139,41.139C58.1,82.639,75.061,99.6,97.8,99.6s39.335-16.78,41.139-39.515C140.739,38.252,120.531,18.946,97.8,18.946Z" fill="#636466"/>
          <path id="Path_58" data-name="Path 58" d="M96.713,48.537c-12.811,0-20.57-10.285-27.787-9.383-4.691.541-8.12,13.172-9.744,21.291-.361,1.624-2.526-1.985-2.526-.541,0,22.735,18.4,46.733,41.139,46.733,22.735.18,41.139-23.817,41.139-46.552,0-2.346-1.443,1.985-2.165-.361-2.165-7.578-6.5-21.111-11.007-21.833C118,36.809,109.524,48.537,96.713,48.537Z" fill="#fff"/>
          <circle id="Ellipse_1" data-name="Ellipse 1" cx="9.744" cy="9.744" r="9.744" transform="translate(72.174 52.868)" fill="#636466"/>
          <circle id="Ellipse_2" data-name="Ellipse 2" cx="7.398" cy="7.398" r="7.398" transform="translate(74.52 55.213)" fill="#fff"/>
          <path id="Path_59" data-name="Path 59" d="M80.835,89.135s4.511-10.646,11.548-9.022S97.8,82.278,97.8,82.278l5.233-2.165a6.755,6.755,0,0,1,6.5,1.443,35.349,35.349,0,0,1,5.413,6.315L97.8,86.068" fill="#636466"/>
          <circle id="Ellipse_3" data-name="Ellipse 3" cx="9.744" cy="9.744" r="9.744" transform="translate(102.848 52.868)" fill="#636466"/>
          <circle id="Ellipse_4" data-name="Ellipse 4" cx="7.398" cy="7.398" r="7.398" transform="translate(105.194 55.213)" fill="#fff"/>
          <path id="Path_60" data-name="Path 60" d="M91.661,62.611s5.233-6.5,11.187,0C102.848,62.611,98.879,59.724,91.661,62.611Z" fill="#636466"/>
        </g>
      </g>
    </g>
  </g>
</svg>
